<svg viewBox="0 0 24 24" fill="none" xmlns="http://www.w3.org/2000/svg">
<circle cx="12" cy="12" r="12" fill="#FF4A4A"/>
<path d="M7.8 16.7987C9.3464 16.7987 10.6 15.5451 10.6 13.9987C10.6 12.4523 9.3464 11.1987 7.8 11.1987C6.2536 11.1987 5 12.4523 5 13.9987C5 15.5451 6.2536 16.7987 7.8 16.7987Z" stroke="white" stroke-linecap="round" stroke-linejoin="round"/>
<path d="M16.1997 16.7987C17.7461 16.7987 18.9997 15.5451 18.9997 13.9987C18.9997 12.4523 17.7461 11.1987 16.1997 11.1987C14.6533 11.1987 13.3997 12.4523 13.3997 13.9987C13.3997 15.5451 14.6533 16.7987 16.1997 16.7987Z" stroke="white" stroke-linecap="round" stroke-linejoin="round"/>
<path d="M13.3991 14.0011C13.3991 13.6298 13.2516 13.2737 12.9891 13.0111C12.7265 12.7486 12.3704 12.6011 11.9991 12.6011C11.6278 12.6011 11.2717 12.7486 11.0092 13.0111C10.7466 13.2737 10.5991 13.6298 10.5991 14.0011" stroke="white" stroke-linecap="round" stroke-linejoin="round"/>
<path d="M5.35059 12.6L7.10059 8.4C7.59059 7.49 8.08059 7 9.20059 7" stroke="white" stroke-linecap="round" stroke-linejoin="round"/>
<path d="M18.65 12.6L16.9 8.4C16.41 7.49 15.85 7 14.8 7" stroke="white" stroke-linecap="round" stroke-linejoin="round"/>
</svg>
