<svg viewBox="0 0 84 84" fill="none" xmlns="http://www.w3.org/2000/svg">
<circle cx="42" cy="42" r="42" fill="#EFEFEF"/>
<path d="M47.0114 39.9908L50.541 34.0015L60.0548 48.8194L60.0593 51.6632L60.0282 32.0946C60.0058 31.6161 59.7517 31.1784 59.3466 30.9202L42.2181 21.0681C41.8177 20.8711 41.3093 20.8735 40.9095 21.0743C40.8554 21.1015 40.8048 21.1308 40.7563 21.163L40.6965 21.2006L24.0706 30.8351L24.0061 30.8646C23.923 30.9025 23.8393 30.9513 23.7603 31.0075C23.4451 31.2334 23.2357 31.5679 23.168 31.9426C23.1579 31.9994 23.1502 32.0573 23.147 32.1159L23.173 48.0623L32.0347 34.3274C33.1502 32.5063 35.5812 31.9192 37.838 31.9515L40.4863 32.0213L24.8812 57.0474L26.7206 58.1064L42.5127 32.0467L49.4929 32.0213L33.7417 58.7387L40.3056 62.5143L41.0899 62.965C41.4217 63.0999 41.8127 63.1067 42.1471 62.9857L59.5163 52.9201L56.1955 54.8444L47.0114 39.9908ZM48.3579 59.3866L41.7284 48.9811L45.7755 42.1136L54.4823 55.8372L48.3579 59.3866Z" fill="#2D374B"/>
<path d="M41.7266 48.9815L48.3564 59.3867L54.4805 55.8376L45.7737 42.1139L41.7266 48.9815Z" fill="#28A0F0"/>
<path d="M60.0581 51.6635L60.0537 48.8197L50.5399 34.0018L47.0103 39.9911L56.1946 54.8447L59.5154 52.9204C59.841 52.656 60.0383 52.2677 60.059 51.8489L60.0581 51.6635Z" fill="#28A0F0"/>
<path d="M20.1909 54.3451L24.8804 57.0473L40.4855 32.0212L37.8372 31.9514C35.5807 31.9195 33.1498 32.5062 32.034 34.3274L23.1722 48.0622L20.1909 52.6429V54.3451V54.3451Z" fill="white"/>
<path d="M49.492 32.0212L42.5117 32.0467L26.7197 58.1063L32.2396 61.2843L33.7405 58.7386L49.492 32.0212Z" fill="white"/>
<path d="M62.9999 31.9852C62.9416 30.5255 62.1511 29.1893 60.9132 28.4113L43.5603 18.4319C42.3356 17.8153 40.8058 17.8144 39.5788 18.4316C39.4339 18.5047 22.7035 28.2078 22.7035 28.2078C22.4719 28.3187 22.2489 28.4509 22.0393 28.6011C20.9341 29.3934 20.2604 30.6243 20.1909 31.9764V52.6433L23.1722 48.0626L23.1462 32.1159C23.1498 32.0577 23.1571 32 23.1672 31.9435C23.2346 31.5682 23.4443 31.2338 23.7596 31.0075C23.8385 30.9513 40.8543 21.1016 40.9084 21.0743C41.3085 20.8735 41.8166 20.8712 42.217 21.0681L59.3455 30.9203C59.7506 31.1785 60.0047 31.6162 60.0271 32.0947V51.8484C60.0064 52.2671 59.8408 52.6554 59.5152 52.9198L56.1944 54.8442L54.4809 55.8372L48.3568 59.3864L42.1461 62.9855C41.8116 63.1064 41.4203 63.0996 41.0888 62.9648L33.7407 58.7384L32.2395 61.2841L38.8433 65.0861C39.0615 65.2103 39.2561 65.3203 39.4158 65.4102C39.6631 65.5489 39.8316 65.6415 39.8911 65.6705C40.3604 65.8985 41.0356 66.031 41.6442 66.031C42.202 66.031 42.7461 65.9286 43.261 65.727L61.3006 55.2801C62.3359 54.4777 62.9452 53.2679 62.9999 51.9575V31.9852Z" fill="#96BEDC"/>
</svg>
