<svg viewBox="0 0 24 24" fill="none" xmlns="http://www.w3.org/2000/svg">
<circle cx="12" cy="12" r="12" fill="#FF4A4A"/>
<path d="M16 9C16 7.93913 15.5786 6.92172 14.8284 6.17157C14.0783 5.42143 13.0609 5 12 5C10.9391 5 9.92172 5.42143 9.17157 6.17157C8.42143 6.92172 8 7.93913 8 9C8 13.6667 6 15 6 15H18C18 15 16 13.6667 16 9Z" stroke="white" stroke-linecap="round" stroke-linejoin="round"/>
<path d="M13.1465 17.668C13.0293 17.87 12.8611 18.0377 12.6587 18.1543C12.4562 18.2709 12.2268 18.3323 11.9932 18.3323C11.7596 18.3323 11.5301 18.2709 11.3277 18.1543C11.1253 18.0377 10.9571 17.87 10.8398 17.668" stroke="white" stroke-linecap="round" stroke-linejoin="round"/>
</svg>
