<svg viewBox="0 0 84 84" fill="none" xmlns="http://www.w3.org/2000/svg">
<circle cx="42" cy="42" r="42" fill="#EFEFEF"/>
<path d="M32.3382 53.4841C31.2602 53.4841 30.3498 52.7141 30.1684 51.6497L24.032 15.5704C23.9327 14.9886 24.0662 14.4068 24.4084 13.9276C24.7507 13.4485 25.2572 13.1302 25.8356 13.0309C27.0335 12.829 28.1731 13.6367 28.3785 14.8346L34.5149 50.9139C34.6141 51.4957 34.4807 52.0775 34.1384 52.5566C33.7962 53.0358 33.2897 53.3541 32.7113 53.4533C32.5915 53.4738 32.4649 53.4841 32.3382 53.4841Z" fill="black"/>
<path d="M32.3382 53.4841C31.2602 53.4841 30.3498 52.7141 30.1684 51.6497L24.032 15.5704C23.9327 14.9886 24.0662 14.4068 24.4084 13.9276C24.7507 13.4485 25.2572 13.1302 25.8356 13.0309C27.0335 12.829 28.1731 13.6367 28.3785 14.8346L34.5149 50.9139C34.6141 51.4957 34.4807 52.0775 34.1384 52.5566C33.7962 53.0358 33.2897 53.3541 32.7113 53.4533C32.5915 53.4738 32.4649 53.4841 32.3382 53.4841Z" fill="black"/>
<path d="M42.6226 36.8442C39.1147 36.8442 35.8531 37.8949 33.1254 39.6985L33.8681 44.0656C36.2124 42.0224 39.2755 40.78 42.6226 40.78C49.9843 40.78 55.9736 46.7693 55.9736 54.131C55.9736 61.4926 49.9843 67.4819 42.6226 67.4819C35.261 67.4819 29.2717 61.4926 29.2717 54.131C29.2717 53.1487 29.3813 52.1939 29.5832 51.2732L28.399 44.3223C26.4688 47.1115 25.3359 50.4929 25.3359 54.1344C25.3359 63.6659 33.0912 71.4211 42.6226 71.4211C52.1541 71.4211 59.9094 63.6659 59.9094 54.1344C59.9094 44.6029 52.1576 36.8442 42.6226 36.8442Z" fill="black"/>
<path d="M41.6779 64.2205C42.9783 64.2205 44.0325 63.1663 44.0325 61.8659C44.0325 60.5654 42.9783 59.5112 41.6779 59.5112C40.3774 59.5112 39.3232 60.5654 39.3232 61.8659C39.3232 63.1663 40.3774 64.2205 41.6779 64.2205Z" fill="black"/>
<path d="M49.0324 61.479C50.3328 61.479 51.387 60.4248 51.387 59.1244C51.387 57.824 50.3328 56.7698 49.0324 56.7698C47.7319 56.7698 46.6777 57.824 46.6777 59.1244C46.6777 60.4248 47.7319 61.479 49.0324 61.479Z" fill="black"/>
<path d="M43.2521 56.4309C44.5525 56.4309 45.6067 55.3767 45.6067 54.0763C45.6067 52.7759 44.5525 51.7217 43.2521 51.7217C41.9517 51.7217 40.8975 52.7759 40.8975 54.0763C40.8975 55.3767 41.9517 56.4309 43.2521 56.4309Z" fill="black"/>
<path d="M35.942 58.8367C37.2425 58.8367 38.2967 57.7825 38.2967 56.4821C38.2967 55.1816 37.2425 54.1274 35.942 54.1274C34.6416 54.1274 33.5874 55.1816 33.5874 56.4821C33.5874 57.7825 34.6416 58.8367 35.942 58.8367Z" fill="black"/>
<path d="M50.5382 54.0181C51.8387 54.0181 52.8929 52.9639 52.8929 51.6635C52.8929 50.363 51.8387 49.3088 50.5382 49.3088C49.2378 49.3088 48.1836 50.363 48.1836 51.6635C48.1836 52.9639 49.2378 54.0181 50.5382 54.0181Z" fill="black"/>
<path d="M44.8229 48.6412C46.1233 48.6412 47.1775 47.5869 47.1775 46.2865C47.1775 44.9861 46.1233 43.9319 44.8229 43.9319C43.5225 43.9319 42.4683 44.9861 42.4683 46.2865C42.4683 47.5869 43.5225 48.6412 44.8229 48.6412Z" fill="black"/>
<path d="M37.4445 51.3792C38.7449 51.3792 39.7991 50.325 39.7991 49.0246C39.7991 47.7241 38.7449 46.6699 37.4445 46.6699C36.144 46.6699 35.0898 47.7241 35.0898 49.0246C35.0898 50.325 36.144 51.3792 37.4445 51.3792Z" fill="black"/>
</svg>
