<svg width="30" height="30" viewBox="0 0 30 30" fill="none" xmlns="http://www.w3.org/2000/svg">
<circle cx="15" cy="15" r="15" fill="#272528"/>
<path d="M14.3333 9.66675H9.66659C9.31296 9.66675 8.97382 9.80722 8.72378 10.0573C8.47373 10.3073 8.33325 10.6465 8.33325 11.0001V20.3334C8.33325 20.687 8.47373 21.0262 8.72378 21.2762C8.97382 21.5263 9.31296 21.6667 9.66659 21.6667H18.9999C19.3535 21.6667 19.6927 21.5263 19.9427 21.2762C20.1928 21.0262 20.3333 20.687 20.3333 20.3334V15.6667" stroke="white" stroke-width="1.33333" stroke-linecap="round" stroke-linejoin="round"/>
<path d="M19.3333 8.66665C19.5985 8.40144 19.9582 8.25244 20.3333 8.25244C20.7083 8.25244 21.068 8.40144 21.3333 8.66665C21.5985 8.93187 21.7475 9.29158 21.7475 9.66665C21.7475 10.0417 21.5985 10.4014 21.3333 10.6667L14.9999 17L12.3333 17.6667L12.9999 15L19.3333 8.66665Z" stroke="white" stroke-width="1.33333" stroke-linecap="round" stroke-linejoin="round"/>
</svg>
