<svg viewBox="0 0 24 24" fill="none" xmlns="http://www.w3.org/2000/svg">
<g clip-path="url(#clip0_415_1477)">
<path d="M12.0891 1.5C6.34219 1.5 1.5 6.11719 1.5 11.8172C1.5 12 1.50469 22.5 1.50469 22.5L12.0891 22.4906C17.8406 22.4906 22.5 17.6953 22.5 11.9953C22.5 6.29531 17.8406 1.5 12.0891 1.5ZM12 18C11.0906 18 10.2234 17.7984 9.45 17.4328L5.64844 18.375L6.72188 14.8594C6.2625 14.0109 6 13.0359 6 12C6 8.68594 8.68594 6 12 6C15.3141 6 18 8.68594 18 12C18 15.3141 15.3141 18 12 18Z" fill="#272528"/>
</g>
<defs>
<clipPath id="clip0_415_1477">
<rect width="21" height="24" fill="white" transform="translate(1.5)"/>
</clipPath>
</defs>
</svg>
