<svg viewBox="0 0 24 24" fill="none" xmlns="http://www.w3.org/2000/svg">
<g clip-path="url(#clip0_415_1460)">
<path d="M20.317 4.5041C18.7873 3.81549 17.147 3.30815 15.4319 3.01758C15.4007 3.01197 15.3695 3.02598 15.3534 3.05401C15.1424 3.42213 14.9087 3.90238 14.7451 4.27984C12.9004 4.0089 11.0652 4.0089 9.25832 4.27984C9.09465 3.89399 8.85248 3.42213 8.64057 3.05401C8.62448 3.02692 8.59328 3.0129 8.56205 3.01758C6.84791 3.30722 5.20756 3.81456 3.67694 4.5041C3.66368 4.5097 3.65233 4.51905 3.64479 4.53119C0.533392 9.09165 -0.31895 13.54 0.0991801 17.9332C0.101072 17.9547 0.11337 17.9753 0.130398 17.9884C2.18321 19.4674 4.17171 20.3653 6.12328 20.9605C6.15451 20.9698 6.18761 20.9586 6.20748 20.9334C6.66913 20.3149 7.08064 19.6627 7.43348 18.9769C7.4543 18.9367 7.43442 18.8891 7.39186 18.8732C6.73913 18.6302 6.1176 18.3341 5.51973 17.9977C5.47244 17.9706 5.46865 17.9043 5.51216 17.8725C5.63797 17.78 5.76382 17.6838 5.88395 17.5866C5.90569 17.5688 5.93598 17.5651 5.96153 17.5763C9.88928 19.3357 14.1415 19.3357 18.023 17.5763C18.0485 17.5642 18.0788 17.5679 18.1015 17.5857C18.2216 17.6828 18.3475 17.78 18.4742 17.8725C18.5177 17.9043 18.5149 17.9706 18.4676 17.9977C17.8697 18.3406 17.2482 18.6302 16.5945 18.8722C16.552 18.8881 16.533 18.9367 16.5538 18.9769C16.9143 19.6617 17.3258 20.3139 17.7789 20.9324C17.7978 20.9586 17.8319 20.9698 17.8631 20.9605C19.8241 20.3653 21.8126 19.4674 23.8654 17.9884C23.8834 17.9753 23.8948 17.9557 23.8967 17.9342C24.3971 12.8551 23.0585 8.44324 20.3482 4.53212C20.3416 4.51905 20.3303 4.5097 20.317 4.5041ZM8.02002 15.2582C6.8375 15.2582 5.86313 14.1931 5.86313 12.885C5.86313 11.577 6.8186 10.5119 8.02002 10.5119C9.23087 10.5119 10.1958 11.5863 10.1769 12.885C10.1769 14.1931 9.22141 15.2582 8.02002 15.2582ZM15.9947 15.2582C14.8123 15.2582 13.8379 14.1931 13.8379 12.885C13.8379 11.577 14.7933 10.5119 15.9947 10.5119C17.2056 10.5119 18.1705 11.5863 18.1516 12.885C18.1516 14.1931 17.2056 15.2582 15.9947 15.2582Z" fill="#272528"/>
</g>
<defs>
<clipPath id="clip0_415_1460">
<rect width="24" height="18.24" fill="white" transform="translate(0 2.87988)"/>
</clipPath>
</defs>
</svg>
