<svg viewBox="0 0 24 24" fill="none" xmlns="http://www.w3.org/2000/svg">
<g clip-path="url(#clip0_415_1472)">
<path d="M13.5374 12.0001C13.5374 15.764 10.5069 18.8152 6.76884 18.8152C3.03073 18.8152 0 15.7633 0 12.0001C0 8.23693 3.0305 5.18481 6.76884 5.18481C10.5072 5.18481 13.5374 8.23624 13.5374 12.0001ZM20.9628 12.0001C20.9628 15.543 19.4476 18.4162 17.5784 18.4162C15.7092 18.4162 14.194 15.543 14.194 12.0001C14.194 8.45724 15.709 5.58404 17.5782 5.58404C19.4474 5.58404 20.9626 8.45632 20.9626 12.0001H20.9628ZM24 12.0001C24 15.1736 23.4672 17.7479 22.8097 17.7479C22.1522 17.7479 21.6196 15.1743 21.6196 12.0001C21.6196 8.82587 22.1524 6.25232 22.8097 6.25232C23.4669 6.25232 24 8.82564 24 12.0001Z" fill="#272528"/>
</g>
<defs>
<clipPath id="clip0_415_1472">
<rect width="24" height="13.6303" fill="white" transform="translate(0 5.18481)"/>
</clipPath>
</defs>
</svg>
