<svg viewBox="0 0 84 84" fill="none" xmlns="http://www.w3.org/2000/svg">
<circle cx="42" cy="42" r="42" fill="#EFEFEF"/>
<g clip-path="url(#clip0_1613_4760)">
<path d="M35.6629 26.1643C26.0381 29.8996 25.1565 39.4657 22.3966 43.9333C19.6041 48.454 13.2066 50.9483 14.0815 53.2521C14.9563 55.5558 21.3614 53.0815 26.4288 54.5515C31.4362 56.0038 38.4228 62.5171 48.0476 58.7816C52.9507 56.879 56.5011 52.9624 58.1337 48.3234C58.3092 47.8254 57.981 47.2929 57.4603 47.2437C57.1364 47.213 56.8257 47.3843 56.6798 47.6779C55.2028 50.6517 52.6696 53.1007 49.3541 54.387C43.8808 56.511 37.8922 54.8435 34.2143 50.6609C33.3789 49.7112 32.6645 48.63 32.1005 47.4351C31.9454 47.1062 31.798 46.7719 31.6672 46.4261C31.5358 46.0803 31.424 45.7322 31.3214 45.3826C34.2143 44.0194 37.5525 42.5756 41.3369 41.1071C45.0475 39.6671 48.4246 38.499 51.4315 37.5646C53.4654 36.933 55.3298 36.4074 57.0133 35.9778C57.135 35.9471 57.2552 35.9164 57.3743 35.8864C57.629 35.8226 57.8904 35.9602 57.9846 36.2076L57.9864 36.2122C58.0417 36.359 58.0895 36.5065 58.1412 36.6541C58.4743 37.6061 58.7237 38.5682 58.8885 39.5326C58.9605 39.9545 59.4167 40.1842 59.7905 39.9813C61.1723 39.2314 62.4364 38.4998 63.5661 37.7959C67.7746 35.1756 70.1077 32.9533 69.629 31.6938C69.1511 30.4336 65.9466 30.3614 61.0842 31.2605C59.5391 31.5463 57.8259 31.9305 55.9797 32.4062C55.6604 32.4884 55.3373 32.5737 55.0105 32.6613C53.4568 33.0778 51.8182 33.555 50.1118 34.089C46.9386 35.0826 43.5343 36.2729 40.0197 37.6369C36.7316 38.9132 33.6153 40.2364 30.7574 41.5551C30.7225 35.9586 34.0691 30.668 39.5423 28.5441C42.857 27.2577 46.3609 27.363 49.4271 28.5748C49.7294 28.6947 50.074 28.6117 50.2951 28.3696C50.6493 27.9816 50.5405 27.3638 50.0808 27.1117C45.797 24.7703 40.5661 24.2616 35.6629 26.1643Z" fill="black"/>
</g>
<defs>
<clipPath id="clip0_1613_4760">
<rect width="56" height="35" fill="white" transform="translate(14 25)"/>
</clipPath>
</defs>
</svg>
