<svg width="8" height="8" viewBox="0 0 8 8" fill="none" xmlns="http://www.w3.org/2000/svg">
<path fill-rule="evenodd" clip-rule="evenodd" d="M7.91858 0.308609C7.89454 0.250506 7.85908 0.196016 7.81219 0.148574C7.81078 0.147151 7.80937 0.145738 7.80795 0.144332C7.71764 0.0550934 7.59351 0 7.45652 0H7.45643H2.58696C2.31081 0 2.08696 0.223858 2.08696 0.5C2.08696 0.776142 2.31081 1 2.58696 1H6.24941L0.146447 7.10297C-0.0488155 7.29823 -0.0488155 7.61481 0.146447 7.81007C0.341709 8.00534 0.658291 8.00534 0.853553 7.81007L6.95652 1.70711V5.36957C6.95652 5.64571 7.18038 5.86957 7.45652 5.86957C7.73266 5.86957 7.95652 5.64571 7.95652 5.36957V0.5C7.95652 0.432205 7.94303 0.367562 7.91858 0.308609Z" fill="#272528"/>
</svg>
