<svg viewBox="0 0 24 24" fill="none" xmlns="http://www.w3.org/2000/svg">
<path fill-rule="evenodd" clip-rule="evenodd" d="M11.9991 0.295654C5.37336 0.295654 0 5.6683 0 12.2962C0 17.5974 3.4381 22.0955 8.20663 23.6831C8.80702 23.7929 9.02582 23.4223 9.02582 23.104C9.02582 22.8189 9.01538 22.0646 9.00911 21.0634C5.67121 21.7883 4.96695 19.4545 4.96695 19.4545C4.42107 18.0681 3.63429 17.699 3.63429 17.699C2.54473 16.955 3.71677 16.9697 3.71677 16.9697C4.92124 17.0545 5.55479 18.2066 5.55479 18.2066C6.62519 20.0402 8.36375 19.5105 9.04739 19.2033C9.1564 18.4283 9.46656 17.8994 9.80911 17.5996C7.14456 17.2961 4.34295 16.2669 4.34295 11.6686C4.34295 10.358 4.81075 9.28759 5.57837 8.44852C5.45453 8.145 5.0428 6.92503 5.69635 5.27266C5.69635 5.27266 6.70338 4.95002 8.99594 6.50222C9.95289 6.23626 10.9798 6.10366 12.0001 6.0985C13.0197 6.10268 14.0459 6.23632 15.0043 6.50222C17.2954 4.95002 18.3009 5.27266 18.3009 5.27266C18.9558 6.92503 18.544 8.145 18.421 8.44852C19.1901 9.28759 19.6542 10.358 19.6542 11.6686C19.6542 16.2787 16.8482 17.2931 14.1755 17.5899C14.6057 17.9605 14.9895 18.6928 14.9895 19.8126C14.9895 21.4163 14.9749 22.7106 14.9749 23.104C14.9749 23.4252 15.1915 23.7987 15.8 23.6816C20.5649 22.0911 24 17.5966 24 12.2962C24 5.6683 18.6267 0.295654 11.9987 0.295654" fill="#272528"/>
</svg>
