<svg fill="none" xmlns="http://www.w3.org/2000/svg">
<circle cx="42" cy="42" r="42" fill="#EFEFEF"/>
<path d="M31.6912 45.4628C33.1867 45.4628 34.5623 44.959 35.6659 44.1112L26.5488 34.9941C25.6931 36.0898 25.1973 37.4733 25.1973 38.9689C25.1973 42.5437 28.1083 45.4628 31.6912 45.4628Z" fill="#041427"/>
<path d="M58.7948 38.9611C58.7948 37.4655 58.291 36.09 57.4433 34.9863L48.3262 44.0954C49.4218 44.9511 50.8054 45.447 52.3009 45.447C55.8838 45.463 58.7948 42.5439 58.7948 38.9611Z" fill="#041427"/>
<path d="M63.3852 29.0361L59.3544 33.0668C60.69 34.6663 61.4898 36.7137 61.4898 38.953C61.4898 44.0233 57.3631 48.15 52.2927 48.15C50.0614 48.15 48.0061 47.3423 46.4066 46.0147L41.992 50.4293L37.5774 46.0147C35.9779 47.3503 33.9306 48.15 31.6913 48.15C26.6209 48.15 22.4942 44.0233 22.4942 38.953C22.4942 36.7217 23.302 34.6663 24.6296 33.0668L22.5662 31.0035L20.6068 29.0441C18.3196 32.8269 17 37.2575 17 42C17 55.8036 28.1884 67 42 67C55.8116 67 67 55.8116 67 42C66.992 37.2495 65.6724 32.8269 63.3852 29.0361Z" fill="#041427"/>
<path d="M60.0741 24.7415C55.5315 19.975 49.1016 17 41.9919 17C34.8821 17 28.4522 19.975 23.9096 24.7415C23.2938 25.3973 22.71 26.0771 22.1582 26.7889L41.9919 46.6385L61.8255 26.7889C61.2897 26.0691 60.6979 25.3973 60.0741 24.7415ZM41.9919 20.271C47.846 20.271 53.2762 22.5262 57.3629 26.6369L41.9919 42.008L26.6208 26.6369C30.7075 22.5182 36.1457 20.271 41.9919 20.271Z" fill="#041427"/>
</svg>
