<svg viewBox="0 0 75 75" fill="none" xmlns="http://www.w3.org/2000/svg">
<g clip-path="url(#clip0_342_833)">
<circle cx="37.5" cy="37.5" r="37.5" fill="#272528"/>
<path d="M29.6666 53H46.3333M38.0001 23V53M23.0001 29.6667H26.3334C29.6667 29.6667 34.6667 28 38.0001 26.3334C41.3334 28 46.3334 29.6667 49.6667 29.6667H53.0001M44.6666 44.6667L49.6666 31.3334L54.6666 44.6667C53.2166 45.75 51.4666 46.3334 49.6666 46.3334C47.8666 46.3334 46.1166 45.75 44.6666 44.6667ZM21.3335 44.6667L26.3335 31.3334L31.3335 44.6667C29.8835 45.75 28.1335 46.3334 26.3335 46.3334C24.5335 46.3334 22.7835 45.75 21.3335 44.6667Z" stroke="white" stroke-width="2" stroke-linecap="round" stroke-linejoin="round"/>
</g>
<defs>
<clipPath id="clip0_342_833">
<rect width="75" height="75" fill="white"/>
</clipPath>
</defs>
</svg>
