<svg xmlns="http://www.w3.org/2000/svg" fill="none" viewBox="0 0 1158 1158">
  <circle cx="579" cy="579" r="579" fill="#4D5ED8" />
  <path
    fill="#FDFEFE"
    d="M558.999 257h340.605c-13.367 16.077-13.367 16.077-18.427 21.612l-3.449 3.783-3.62 3.952-3.882 4.255a17077.59 17077.59 0 0 1-12.208 13.353 80946.927 80946.927 0 0 0-19.836 21.726c-8.911 9.759-17.81 19.532-26.7 29.313a29810.833 29810.833 0 0 1-50.536 55.419 27053.346 27053.346 0 0 0-46.211 50.702 19235.069 19235.069 0 0 1-31.019 34.02 15762.57 15762.57 0 0 0-26.694 29.306 37938.945 37938.945 0 0 1-31.932 35.09l-3.98 4.373-3.77 4.134-3.294 3.614c-3.56 3.828-3.56 3.828-8.653 8.352-5.818 6.88-6.052 9.848-6.074 18.849-.031 2.654-.059 5.308-.093 8.042l.054 8.813a2955.114 2955.114 0 0 0-.099 34.723c.006 7.91-.04 15.817-.084 23.726-.095 23.123-.102 46.245-.122 69.368l-.371 156.559H258c13.367-16.077 13.367-16.077 18.426-21.612l3.45-3.783 3.62-3.952 3.881-4.255c4.068-4.454 8.139-8.903 12.208-13.354a58729.01 58729.01 0 0 0 19.837-21.726 16503.07 16503.07 0 0 0 26.699-29.312c16.817-18.502 33.677-36.96 50.537-55.419a27402.616 27402.616 0 0 0 46.211-50.702 18855.727 18855.727 0 0 1 31.019-34.02c8.911-9.757 17.806-19.527 26.694-29.306 10.638-11.702 21.279-23.4 31.931-35.09l3.981-4.373 3.77-4.134 3.293-3.614c3.561-3.828 3.561-3.828 8.654-8.352 5.818-6.88 6.052-9.848 6.073-18.849.032-2.654.06-5.308.093-8.042l-.053-8.813c.1-11.574.133-23.148.099-34.723-.006-7.911.04-15.818.083-23.726.095-23.123.103-46.245.121-69.368L558.999 257Z"
  />
  <path
    fill="#4F60D8"
    d="M557.019 632.643h1.98v224.569H355.033c0-4.083 0-4.083 4.039-8.51 1.95-1.931 3.904-3.858 5.862-5.781 2.331-2.368 4.656-4.743 6.977-7.121l3.752-3.836c10.274-10.528 20.444-20.999 29.797-32.42 4.723-5.561 9.884-10.65 14.991-15.836 3.736-3.913 7.232-7.946 10.699-12.112 6.481-7.781 13.458-14.932 20.535-22.131 5.175-5.41 9.951-11.095 14.745-16.859 4.895-5.679 10.159-10.94 15.409-16.269 3.736-3.913 7.232-7.945 10.699-12.112 5.087-6.106 10.406-11.829 15.965-17.482a340.6 340.6 0 0 0 18.61-20.629c5.82-6.837 11.791-13.521 17.777-20.201l3.505-3.936c2.834-3.153 5.723-6.248 8.624-9.334Zm41.586-332.771h203.966c0 4.083 0 4.083-4.04 8.509a1775.218 1775.218 0 0 1-5.861 5.782 2342.703 2342.703 0 0 0-6.977 7.121l-3.752 3.836c-10.274 10.528-20.444 20.999-29.797 32.42-4.723 5.561-9.884 10.65-14.991 15.836-3.736 3.913-7.232 7.945-10.697 12.114-6.483 7.779-13.46 14.93-20.539 22.13-5.173 5.409-9.949 11.094-14.743 16.857-4.895 5.68-10.159 10.941-15.409 16.269-3.736 3.914-7.232 7.946-10.697 12.115-6.483 7.778-13.46 14.93-20.539 22.13-5.169 5.402-9.941 11.082-14.727 16.843-4.963 5.753-10.3 11.087-15.625 16.483a156.778 156.778 0 0 0-9.507 11.02l-4.085 5.104h-1.98V299.872Z"
  />
</svg>
