<svg xmlns="http://www.w3.org/2000/svg" viewBox="0 0 839.1 839.2">
  <defs>
    <linearGradient
      id="ip-icon-a"
      x1="80.1"
      x2="759.1"
      y1="223.6"
      y2="615.6"
      gradientUnits="userSpaceOnUse"
    >
      <stop offset="0" stop-color="#fee089" />
      <stop offset=".6" stop-color="#6a5300" />
    </linearGradient>
    <linearGradient
      id="ip-icon-b"
      x1="212.9"
      x2="704.6"
      y1="209"
      y2="700.6"
      gradientUnits="userSpaceOnUse"
    >
      <stop offset="0" stop-color="#f7dc8f" />
      <stop offset="1" stop-color="#cca831" />
    </linearGradient>
  </defs>
  <path
    d="M238.9 124.7c68.5-168.6 305-165.4 369.2 5 19.3 51.3 59.3 92.2 109.2 111.9C882 306 879 545.8 712.5 605.7c-50.7 18.2-91.6 58.2-112.2 108.9-68.8 169.3-306.7 165-369.8-6.5-19.5-50.5-59.2-91-108.7-110.3-164.7-64.4-161.7-304.2 4.8-364.1 50.7-18.2 91.6-58.2 112.2-108.9Z"
    style="fill: url(#ip-icon-a)"
  />
  <path
    d="M243.7 128.6c66.7-164.1 296.9-161 359.3 4.8 18.7 50 57.7 89.8 106.3 108.9 160.3 62.7 157.3 296-4.6 354.4-49.4 17.7-89.1 56.6-109.2 106-67 164.8-298.5 160.6-359.9-6.3-18.9-49.2-57.6-88.5-105.8-107.4-160.3-62.7-157.3-296 4.6-354.4 49.4-17.7 89.1-56.6 109.2-106Z"
    style="fill: url(#ip-icon-b)"
  />
  <path
    d="M141.8 243.2c49.4-17.7 89.1-56.6 109.2-106C307.6-2 481.5-20.9 571.2 77.5 484-30.4 301.8-14.4 243.7 128.6c-20.1 49.4-59.8 88.3-109.2 106-133.3 48.1-159 214.6-74.5 307-75.5-93.7-47.5-251.8 81.8-298.4Z"
    style="fill: #ffe8ae"
  />
  <path
    d="M243.1 688.2c-17.4-48.8-55.6-88-104.1-107.9C2.2 524.4-16.4 352.6 80.2 264c-106 86.2-90.2 266.1 50.2 323.5 48.5 20 86.8 59.2 104.1 108 47.2 131.7 210.8 157 301.6 73.5-92.1 74.6-247.4 47-293.2-80.7Z"
    style="fill: #ffedc0"
  />
  <path
    d="M697.4 588.1c-49.4 17.7-89.1 56.6-109.2 106-56.5 139.2-230.5 158.1-320.2 59.7 87.2 107.9 269.4 91.8 327.5-51.1 20.1-49.4 59.8-88.3 109.2-106 133.3-48 158.9-214.6 74.4-306.9 75.5 93.8 47.6 251.8-81.7 298.4Z"
    style="fill: #826711"
  />
  <path
    d="M702.1 594.3c-50.3 18-90.8 57.6-111.3 107.8-57.6 141.5-234.9 160.8-326.3 60.8 88.9 109.7 274.6 93.4 333.8-52 20.5-50.2 61-89.8 111.3-107.8 135.8-48.9 161.9-218.2 75.8-312.2 77 95.4 48.5 256.1-83.3 303.5Z"
    style="fill: #fee7a2; opacity: 0.3"
  />
  <path
    d="M333.2 518.8h-65.3V312.4h65.3v206.4ZM449.8 518.8h-65.3V312.4h132.8c52.3 0 86.8 25.3 86.8 73.6s-34.5 73.6-86.8 73.6h-67.6v59.2h.1Zm64.1-113.3c16.9 0 25.9-7.8 25.9-19.5s-8.9-19.5-25.9-19.5h-64.1v39.1h64.1Z"
  />
</svg>
