<svg viewBox="0 0 24 24" fill="none" xmlns="http://www.w3.org/2000/svg">
<circle cx="12" cy="12" r="12" fill="#FF4A4A"/>
<path d="M10.8333 12.5833C11.0838 12.9182 11.4034 13.1954 11.7704 13.3959C12.1374 13.5964 12.5433 13.7157 12.9605 13.7455C13.3776 13.7754 13.7963 13.7152 14.1882 13.569C14.5801 13.4229 14.9359 13.1941 15.2316 12.8983L16.9816 11.1483C17.5129 10.5982 17.8069 9.86149 17.8002 9.09675C17.7936 8.33201 17.4868 7.60047 16.9461 7.0597C16.4053 6.51893 15.6737 6.21218 14.909 6.20554C14.1443 6.19889 13.4075 6.49288 12.8574 7.02417L11.8541 8.02167" stroke="white" stroke-linecap="round" stroke-linejoin="round"/>
<path d="M13.1668 11.4167C12.9163 11.0818 12.5967 10.8046 12.2296 10.6041C11.8626 10.4036 11.4567 10.2844 11.0396 10.2545C10.6224 10.2246 10.2037 10.2848 9.81183 10.431C9.41997 10.5771 9.06413 10.8059 8.76845 11.1017L7.01845 12.8517C6.48716 13.4018 6.19317 14.1385 6.19982 14.9033C6.20646 15.668 6.51321 16.3995 7.05398 16.9403C7.59475 17.4811 8.32629 17.7878 9.09103 17.7945C9.85577 17.8011 10.5925 17.5071 11.1426 16.9758L12.1401 15.9783" stroke="white" stroke-linecap="round" stroke-linejoin="round"/>
</svg>
