<svg viewBox="0 0 24 12" fill="none" xmlns="http://www.w3.org/2000/svg">
<path fill-rule="evenodd" clip-rule="evenodd" d="M18 1H6C3.23858 1 1 3.23858 1 6C1 8.76142 3.23858 11 6 11H18C20.7614 11 23 8.76142 23 6C23 3.23858 20.7614 1 18 1ZM6 0C2.68629 0 0 2.68629 0 6C0 9.31371 2.68629 12 6 12H18C21.3137 12 24 9.31371 24 6C24 2.68629 21.3137 0 18 0H6ZM7.00025 8.99884C8.6571 8.99884 10.0002 7.65569 10.0002 5.99884C10.0002 4.34198 8.6571 2.99884 7.00025 2.99884C5.34339 2.99884 4.00025 4.34198 4.00025 5.99884C4.00025 7.65569 5.34339 8.99884 7.00025 8.99884ZM7.00025 9.99884C9.20939 9.99884 11.0002 8.20798 11.0002 5.99884C11.0002 3.7897 9.20939 1.99884 7.00025 1.99884C4.79111 1.99884 3.00025 3.7897 3.00025 5.99884C3.00025 8.20798 4.79111 9.99884 7.00025 9.99884ZM20.0004 5.99884C20.0004 7.65569 18.6573 8.99884 17.0004 8.99884C15.3436 8.99884 14.0004 7.65569 14.0004 5.99884C14.0004 4.34198 15.3436 2.99884 17.0004 2.99884C18.6573 2.99884 20.0004 4.34198 20.0004 5.99884ZM21.0004 5.99884C21.0004 8.20798 19.2096 9.99884 17.0004 9.99884C14.7913 9.99884 13.0004 8.20798 13.0004 5.99884C13.0004 3.7897 14.7913 1.99884 17.0004 1.99884C19.2096 1.99884 21.0004 3.7897 21.0004 5.99884Z" fill="#272528"/>
</svg>
