<svg viewBox="0 0 84 84" fill="none" xmlns="http://www.w3.org/2000/svg">
<g clip-path="url(#clip0_1612_4637)">
<path d="M42 84C65.196 84 84 65.196 84 42C84 18.804 65.196 0 42 0C18.804 0 0 18.804 0 42C0 65.196 18.804 84 42 84Z" fill="#FF0420"/>
<path d="M30.4614 53.76C27.9282 53.76 25.8527 53.1501 24.2347 51.9306C22.6382 50.6893 21.8398 48.9253 21.8398 46.6386C21.8398 46.1595 21.8931 45.5715 21.9994 44.8746C22.2763 43.3067 22.6701 41.4229 23.181 39.2233C24.6285 33.2344 28.3646 30.24 34.3891 30.24C36.0283 30.24 37.4971 30.5231 38.7956 31.0894C40.0942 31.6337 41.116 32.4613 41.8611 33.5719C42.6062 34.6609 42.9788 35.9676 42.9788 37.492C42.9788 37.9493 42.9255 38.5264 42.819 39.2233C42.4998 41.1615 42.1166 43.0453 41.6696 44.8746C40.9245 47.8581 39.6366 50.0904 37.8057 51.5713C35.975 53.0304 33.5269 53.76 30.4614 53.76ZM30.9085 49.056C32.1006 49.056 33.1118 48.6966 33.9421 47.9779C34.7935 47.2594 35.4003 46.1595 35.7622 44.6786C36.2517 42.6315 36.6243 40.8458 36.8797 39.3214C36.9649 38.8639 37.0074 38.3957 37.0074 37.9166C37.0074 35.9349 35.9964 34.944 33.974 34.944C32.7819 34.944 31.7601 35.3033 30.9085 36.022C30.0782 36.7406 29.4822 37.8405 29.1203 39.3214C28.7371 40.7805 28.3539 42.5661 27.9708 44.6786C27.8857 45.1142 27.843 45.5715 27.843 46.0506C27.843 48.0542 28.8648 49.056 30.9085 49.056Z" fill="white"/>
<path d="M44.445 53.4335C44.2108 53.4335 44.0299 53.3572 43.9021 53.2046C43.7957 53.0304 43.7638 52.8345 43.8063 52.6166L48.2129 31.3835C48.2554 31.1439 48.3725 30.9478 48.5642 30.7955C48.7557 30.6429 48.958 30.5667 49.1709 30.5667H57.6648C60.0277 30.5667 61.9222 31.0676 63.3486 32.0694C64.7962 33.0712 65.52 34.5194 65.52 36.4141C65.52 36.9585 65.4561 37.5247 65.3284 38.1127C64.7962 40.6172 63.7212 42.4683 62.1032 43.6661C60.5067 44.8638 58.3139 45.4627 55.5253 45.4627H51.2144L49.7456 52.6166C49.7031 52.8562 49.586 53.0523 49.3943 53.2046C49.2028 53.3572 49.0005 53.4335 48.7877 53.4335H44.445ZM55.7487 40.9548C56.6428 40.9548 57.4198 40.7043 58.0799 40.2035C58.761 39.7025 59.208 38.9838 59.4211 38.0474C59.4849 37.6772 59.5168 37.3505 59.5168 37.0674C59.5168 36.4359 59.3359 35.9568 58.974 35.63C58.612 35.2816 57.9947 35.1074 57.1218 35.1074H53.2901L52.0766 40.9548H55.7487Z" fill="white"/>
</g>
<defs>
<clipPath id="clip0_1612_4637">
<rect width="84" height="84" fill="white"/>
</clipPath>
</defs>
</svg>
