<svg width="290" height="290" viewBox="0 0 290 290" fill="none" xmlns="http://www.w3.org/2000/svg">
<circle cx="145" cy="145" r="145" fill="#272528"/>
<path fill-rule="evenodd" clip-rule="evenodd" d="M194.275 57.0271C194.844 54.8971 193.583 52.7078 191.458 52.137C189.333 51.5663 187.148 52.8303 186.579 54.9603L184.538 62.5963C183.968 64.7263 185.229 66.9156 187.354 67.4864C189.48 68.0571 191.664 66.7931 192.233 64.6631L194.275 57.0271ZM188.151 79.935C188.72 77.805 187.459 75.6156 185.334 75.0449C183.209 74.4742 181.024 75.7382 180.455 77.8682L178.413 85.5042C177.844 87.6341 179.105 89.8235 181.23 90.3942C183.355 90.965 185.54 89.7009 186.109 87.5709L188.151 79.935ZM221.41 75.7577C222.966 74.1984 222.966 71.6704 221.41 70.1111C219.854 68.5519 217.332 68.5519 215.776 70.1111L210.199 75.701C208.644 77.2603 208.644 79.7883 210.199 81.3476C211.755 82.9068 214.277 82.9068 215.833 81.3476L221.41 75.7577ZM204.679 92.5274C206.234 90.9682 206.234 88.4401 204.679 86.8808C203.123 85.3216 200.601 85.3216 199.045 86.8808L193.468 92.4708C191.912 94.03 191.912 96.5581 193.468 98.1173C195.023 99.6766 197.546 99.6766 199.101 98.1173L204.679 92.5274ZM239.228 100.023C239.797 102.153 238.536 104.343 236.411 104.913L228.792 106.959C226.667 107.53 224.483 106.266 223.913 104.136C223.344 102.006 224.605 99.8169 226.73 99.2461L234.349 97.2001C236.474 96.6294 238.658 97.8934 239.228 100.023ZM216.372 106.162C216.941 108.291 215.68 110.481 213.555 111.052L205.937 113.098C203.811 113.668 201.627 112.404 201.058 110.274C200.488 108.144 201.749 105.955 203.874 105.384L211.493 103.338C213.618 102.768 215.803 104.032 216.372 106.162ZM82.4054 163.722C82.4054 195.677 100.291 216.202 129.063 216.202C158.095 216.202 176.24 195.418 176.24 163.722V162.682C176.24 130.987 158.354 110.202 129.582 110.202C100.55 110.202 82.4054 130.987 82.4054 162.682V163.722ZM189.2 163.202C189.2 200.873 165.094 227.114 129.063 227.114C93.033 227.114 69.4448 201.133 69.4448 163.202C69.4448 125.271 93.5514 99.2906 129.582 99.2906C165.353 99.2906 189.2 125.271 189.2 163.202Z" fill="#FF4A4A"/>
</svg>
