<svg width="16" height="16" viewBox="0 0 16 16" fill="none" xmlns="http://www.w3.org/2000/svg">
<path d="M7.99998 11.3334V14.6667M5.99998 7.17337C5.99985 7.42143 5.93052 7.66453 5.79979 7.87534C5.66907 8.08616 5.48212 8.25632 5.25998 8.36671L4.07331 8.96671C3.85117 9.07709 3.66423 9.24726 3.5335 9.45807C3.40277 9.66888 3.33344 9.91198 3.33331 10.16V10.6667C3.33331 10.8435 3.40355 11.0131 3.52858 11.1381C3.6536 11.2631 3.82317 11.3334 3.99998 11.3334H12C12.1768 11.3334 12.3464 11.2631 12.4714 11.1381C12.5964 11.0131 12.6666 10.8435 12.6666 10.6667V10.16C12.6665 9.91198 12.5972 9.66888 12.4665 9.45807C12.3357 9.24726 12.1488 9.07709 11.9266 8.96671L10.74 8.36671C10.5178 8.25632 10.3309 8.08616 10.2002 7.87534C10.0694 7.66453 10.0001 7.42143 9.99998 7.17337V4.66671C9.99998 4.4899 10.0702 4.32033 10.1952 4.1953C10.3203 4.07028 10.4898 4.00004 10.6666 4.00004C11.0203 4.00004 11.3594 3.85956 11.6095 3.60952C11.8595 3.35947 12 3.02033 12 2.66671C12 2.31309 11.8595 1.97395 11.6095 1.7239C11.3594 1.47385 11.0203 1.33337 10.6666 1.33337H5.33331C4.97969 1.33337 4.64055 1.47385 4.3905 1.7239C4.14046 1.97395 3.99998 2.31309 3.99998 2.66671C3.99998 3.02033 4.14046 3.35947 4.3905 3.60952C4.64055 3.85956 4.97969 4.00004 5.33331 4.00004C5.51012 4.00004 5.67969 4.07028 5.80472 4.1953C5.92974 4.32033 5.99998 4.4899 5.99998 4.66671V7.17337Z" stroke="#272528" stroke-linecap="round" stroke-linejoin="round"/>
</svg>
