<svg viewBox="0 0 24 24" fill="none" xmlns="http://www.w3.org/2000/svg">
<circle cx="12" cy="12" r="12" fill="#FF4A4A"/>
<path d="M17.3726 14.2692C17.0015 15.1468 16.421 15.9201 15.682 16.5216C14.943 17.1231 14.0679 17.5343 13.1332 17.7195C12.1985 17.9046 11.2327 17.8579 10.3202 17.5836C9.40766 17.3092 8.57627 16.8155 7.89867 16.1456C7.22106 15.4757 6.71788 14.65 6.43311 13.7407C6.14834 12.8314 6.09065 11.8661 6.26509 10.9294C6.43953 9.99264 6.84078 9.11288 7.43377 8.36703C8.02675 7.62118 8.79342 7.03195 9.66674 6.65085" stroke="white" stroke-linecap="round" stroke-linejoin="round"/>
<path d="M17.8333 12C17.8333 11.2339 17.6825 10.4754 17.3893 9.76767C17.0961 9.05994 16.6665 8.41688 16.1248 7.8752C15.5831 7.33353 14.9401 6.90385 14.2323 6.61069C13.5246 6.31754 12.766 6.16666 12 6.16666V12H17.8333Z" stroke="white" stroke-linecap="round" stroke-linejoin="round"/>
</svg>
