<svg  viewBox="0 0 512 512" fill="none" xmlns="http://www.w3.org/2000/svg">
    <rect width="100%" height="100%" fill="black"/>
    <path d="M311.802 199.761C335.188 199.761 357.179 208.852 373.715 225.363C390.253 241.871 399.36 263.824 399.36 287.17C399.36 310.517 390.254 332.467 373.715 348.978C357.179 365.485 335.188 374.579 311.802 374.579H200.199C176.809 374.579 154.822 365.485 138.286 348.978C121.747 332.47 112.64 310.52 112.64 287.17C112.64 263.821 121.747 241.871 138.286 225.363C154.822 208.852 176.809 199.761 200.199 199.761H311.802ZM199.44 247.439C189.039 247.439 179.261 251.571 171.906 259.077C164.551 266.58 160.499 276.559 160.499 287.17C160.499 297.782 164.551 307.76 171.906 315.263C179.261 322.769 189.039 326.901 199.44 326.901H312.56C322.961 326.901 332.74 322.769 340.095 315.263C347.449 307.76 351.501 297.782 351.501 287.17C351.501 276.559 347.449 266.58 340.095 259.077C332.74 251.571 322.961 247.439 312.56 247.439H199.44ZM311.737 263.332C324.926 263.332 335.618 274.006 335.619 287.173C335.619 300.34 324.926 311.013 311.737 311.014C298.548 311.014 287.855 300.34 287.855 287.173C287.855 274.006 298.548 263.332 311.737 263.332ZM399.292 183.87H112.743V136.192H399.292V183.87Z" fill="#FD621D"/>
</svg>
