<svg width="25" height="24" viewBox="0 0 25 24" fill="none" xmlns="http://www.w3.org/2000/svg">
<circle cx="12.4001" cy="12" r="12" fill="white"/>
<path d="M11.9908 16.3812C14.2918 16.3812 15.5268 15.3672 15.5268 13.7162C15.5268 12.6632 14.9548 11.9612 13.9278 11.6492C14.8768 11.3632 15.3318 10.7652 15.3318 9.89422C15.3318 8.30822 14.1748 7.38522 11.9908 7.38522C9.91076 7.38522 8.71476 8.42522 8.50676 10.3232H10.4308C10.5218 9.49122 10.9248 9.01022 11.9388 9.01022C12.8228 9.01022 13.3168 9.38722 13.3168 10.0242V10.0632C13.3168 10.7002 12.9138 11.0382 12.0298 11.0382H11.3538V12.5462H12.0038C13.0438 12.5462 13.4468 12.8842 13.4468 13.6122V13.6642C13.4468 14.3662 12.9268 14.7562 11.9518 14.7562C10.8988 14.7562 10.4308 14.3402 10.3658 13.4562H8.44176C8.53276 15.6272 9.94976 16.3812 11.9908 16.3812Z" fill="#272528"/>
</svg>
