<svg viewBox="0 0 24 24" fill="none" xmlns="http://www.w3.org/2000/svg">
<g clip-path="url(#clip0_415_1465)">
<path d="M24 4.81362C23.1013 5.19969 22.148 5.4531 21.1719 5.56543C22.1887 4.97453 22.9693 4.0388 23.3369 2.92389C22.3704 3.48006 21.3129 3.87191 20.2103 4.08253C19.312 3.15462 18.0324 2.57471 16.6162 2.57471C13.8968 2.57471 11.6921 4.71253 11.6921 7.34925C11.6921 7.72353 11.7357 8.08789 11.8196 8.43743C7.72744 8.23825 4.09931 6.33743 1.67072 3.44871C1.24697 4.15389 1.00416 4.97416 1.00416 5.84907C1.00416 7.50562 1.8735 8.96698 3.19462 9.82325C2.4127 9.79951 1.64798 9.59472 0.964313 9.22598C0.964031 9.24598 0.964031 9.26598 0.964031 9.28607C0.964031 11.5994 2.66128 13.5293 4.91372 13.9679C4.18864 14.1591 3.42809 14.1871 2.69016 14.0497C3.31669 15.9466 5.13516 17.327 7.28972 17.3656C5.60456 18.6462 3.48141 19.4095 1.17459 19.4095C0.777094 19.4095 0.385219 19.3869 0 19.3428C2.17903 20.6975 4.76719 21.488 7.54781 21.488C16.6047 21.488 21.5573 14.2124 21.5573 7.90298C21.5573 7.69589 21.5526 7.48998 21.543 7.28525C22.507 6.60951 23.339 5.77254 24 4.81362Z" fill="#272528"/>
</g>
<defs>
<clipPath id="clip0_415_1465">
<rect width="24" height="19" fill="white" transform="translate(0 2.5)"/>
</clipPath>
</defs>
</svg>
