<svg viewBox="0 0 75 11" fill="none" xmlns="http://www.w3.org/2000/svg">
<path fill-rule="evenodd" clip-rule="evenodd" d="M26.9189 10.5658H25.1438C24.8104 10.5658 24.5401 10.2948 24.5401 9.96092V5.25971L21.4243 7.21766C21.1629 7.38198 20.8304 7.38198 20.569 7.21766L17.4532 5.25951V9.96092C17.4532 10.2948 17.1827 10.5658 16.8495 10.5658H15.0744C14.7408 10.5658 14.4707 10.2948 14.4707 9.96092V0.899852C14.4707 0.251034 15.1963 -0.132248 15.7304 0.234501L20.6556 3.61549C20.861 3.75683 21.1323 3.75683 21.3379 3.61549L26.2627 0.234501C26.797 -0.13245 27.5226 0.250832 27.5226 0.89965V9.96092C27.5226 10.2948 27.2523 10.5658 26.9189 10.5658Z" fill="white"/>
<path fill-rule="evenodd" clip-rule="evenodd" d="M11.7975 10.4843L0.80108 10.4841C0.358684 10.4841 0 10.1245 0 9.68095V0.602374C0 0.269663 0.268963 0 0.60081 0H2.36739C2.69904 0 2.9682 0.269663 2.9682 0.602374V7.50819L9.63039 7.50839V0.602374C9.63039 0.269663 9.89915 0 10.2312 0H11.9978C12.3294 0 12.5986 0.269663 12.5986 0.602374V9.68115C12.5986 10.1247 12.2399 10.4843 11.7975 10.4843Z" fill="white"/>
<path fill-rule="evenodd" clip-rule="evenodd" d="M30.1717 0L41.1681 0.000200791C41.6105 0.000200791 41.9692 0.359818 41.9692 0.803366V9.88194C41.9692 10.2147 41.7 10.4843 41.3684 10.4843H39.6018C39.27 10.4843 39.001 10.2147 39.001 9.88194V3.37771C39.001 3.15604 38.8216 2.97613 38.6005 2.97613L32.7394 2.97593C32.5183 2.97593 32.3388 3.15564 32.3388 3.37751V9.88194C32.3388 10.2147 32.0698 10.4843 31.738 10.4843H29.9714C29.6396 10.4843 29.3706 10.2147 29.3706 9.88194V0.803165C29.3706 0.359617 29.7293 0 30.1717 0Z" fill="white"/>
<path fill-rule="evenodd" clip-rule="evenodd" d="M34.1851 5.5173V7.30459C34.1851 7.63508 34.4542 7.90294 34.7864 7.90294H36.5528C36.885 7.90294 37.1542 7.63508 37.1542 7.30459V5.5173C37.1542 5.18681 36.885 4.91895 36.5528 4.91895H34.7864C34.4542 4.91895 34.1851 5.18681 34.1851 5.5173Z" fill="white"/>
<rect x="46.6318" width="12.4351" height="0.388598" fill="white"/>
<rect x="46.6318" y="3.88574" width="9.71494" height="0.388598" fill="white"/>
<rect x="49.3521" y="7.77246" width="9.71494" height="0.388598" fill="white"/>
<rect x="46.6318" y="2.33203" width="9.71494" height="0.388598" fill="white"/>
<rect x="49.3521" y="6.21777" width="9.71494" height="0.388598" fill="white"/>
<rect x="46.6318" y="10.1035" width="12.4351" height="0.388598" fill="white"/>
<rect x="58.6782" y="6.60645" width="6.60616" height="0.388598" transform="rotate(-90 58.6782 6.60645)" fill="white"/>
<rect x="58.6782" y="10.4912" width="2.72018" height="0.388598" transform="rotate(-90 58.6782 10.4912)" fill="white"/>
<rect x="46.6318" y="10.4912" width="6.60616" height="0.388598" transform="rotate(-90 46.6318 10.4912)" fill="white"/>
<rect x="55.9585" y="4.27441" width="1.94299" height="0.388598" transform="rotate(-90 55.9585 4.27441)" fill="white"/>
<rect x="49.3521" y="8.16113" width="1.94299" height="0.388598" transform="rotate(-90 49.3521 8.16113)" fill="white"/>
<rect x="46.6318" y="2.7207" width="2.72018" height="0.388598" transform="rotate(-90 46.6318 2.7207)" fill="white"/>
<rect x="60.2324" y="10.4922" width="1.16579" height="0.388598" transform="rotate(-90 60.2324 10.4922)" fill="white"/>
<rect x="61.0098" y="10.4922" width="1.16579" height="0.388598" transform="rotate(-90 61.0098 10.4922)" fill="white"/>
<rect x="61.3984" y="9.71484" width="1.16579" height="0.388598" transform="rotate(180 61.3984 9.71484)" fill="white"/>
<rect x="61.3984" y="10.4922" width="1.16579" height="0.388598" transform="rotate(180 61.3984 10.4922)" fill="white"/>
<rect x="62.5645" width="12.4351" height="0.388598" fill="white"/>
<rect x="62.5645" y="10.4922" width="10.4921" height="0.388598" transform="rotate(-90 62.5645 10.4922)" fill="white"/>
<rect x="74.6108" y="10.4922" width="10.4921" height="0.388598" transform="rotate(-90 74.6108 10.4922)" fill="white"/>
<rect x="62.5645" y="10.1035" width="12.4351" height="0.388598" fill="white"/>
<rect x="65.4785" y="2.52535" width="6.60616" height="5.44037" stroke="white" stroke-width="0.388598"/>
</svg>
