<svg width="40" height="40" viewBox="0 0 40 40" fill="none" xmlns="http://www.w3.org/2000/svg">
<circle cx="20" cy="20" r="20" fill="#FF4A4A"/>
<path fill-rule="evenodd" clip-rule="evenodd" d="M11.2989 12L29.1293 12.0003C29.8466 12.0003 30.4282 12.5834 30.4282 13.3026V28.0233C30.4282 28.5628 29.9918 29 29.454 29H26.5896C26.0515 29 25.6154 28.5628 25.6154 28.0233V17.4769C25.6154 17.1174 25.3244 16.8257 24.9659 16.8257L15.4623 16.8254C15.1038 16.8254 14.8129 17.1168 14.8129 17.4765V28.0233C14.8129 28.5628 14.3767 29 13.8387 29H10.9742C10.4361 29 10 28.5628 10 28.0233V13.3023C10 12.5831 10.5816 12 11.2989 12Z" fill="white"/>
<path fill-rule="evenodd" clip-rule="evenodd" d="M17.8066 20.9487V23.8468C17.8066 24.3826 18.2431 24.817 18.7817 24.817H21.6459C22.1845 24.817 22.6209 24.3826 22.6209 23.8468V20.9487C22.6209 20.4128 22.1845 19.9785 21.6459 19.9785H18.7817C18.2431 19.9785 17.8066 20.4128 17.8066 20.9487Z" fill="white"/>
</svg>
