<svg viewBox="0 0 24 24" fill="none" xmlns="http://www.w3.org/2000/svg">
<circle cx="12" cy="12" r="12" fill="#FF4A4A"/>
<path d="M14.9168 17.25V16.0833C14.9168 15.4645 14.671 14.871 14.2334 14.4334C13.7958 13.9958 13.2023 13.75 12.5835 13.75H7.91683C7.29799 13.75 6.7045 13.9958 6.26691 14.4334C5.82933 14.871 5.5835 15.4645 5.5835 16.0833V17.25" stroke="white" stroke-linecap="round" stroke-linejoin="round"/>
<path d="M10.2498 11.4167C11.5385 11.4167 12.5832 10.372 12.5832 9.08333C12.5832 7.79467 11.5385 6.75 10.2498 6.75C8.96117 6.75 7.9165 7.79467 7.9165 9.08333C7.9165 10.372 8.96117 11.4167 10.2498 11.4167Z" stroke="white" stroke-linecap="round" stroke-linejoin="round"/>
<path d="M18.4165 17.25V16.0833C18.4161 15.5663 18.244 15.0641 17.9273 14.6555C17.6106 14.2469 17.1671 13.9551 16.6665 13.8258" stroke="white" stroke-linecap="round" stroke-linejoin="round"/>
<path d="M14.3335 6.82583C14.8354 6.95434 15.2803 7.24624 15.598 7.65551C15.9156 8.06479 16.0881 8.56815 16.0881 9.08625C16.0881 9.60435 15.9156 10.1077 15.598 10.517C15.2803 10.9263 14.8354 11.2182 14.3335 11.3467" stroke="white" stroke-linecap="round" stroke-linejoin="round"/>
</svg>
